<?xml version="1.0" standalone="no"?>
<!DOCTYPE svg PUBLIC "-//W3C//DTD SVG 20010904//EN"
 "http://www.w3.org/TR/2001/REC-SVG-20010904/DTD/svg10.dtd">
<svg version="1.0" xmlns="http://www.w3.org/2000/svg"
 width="1411.000000pt" height="451.000000pt" viewBox="0 0 1411.000000 451.000000"
 preserveAspectRatio="xMidYMid meet">

<g transform="translate(0.000000,451.000000) scale(0.100000,-0.100000)"
fill="#000000" stroke="none">
<path d="M4213 3551 c-54 -14 -104 -86 -143 -206 -7 -22 -21 -52 -31 -66 -10
-14 -25 -45 -34 -70 -37 -99 -43 -111 -57 -128 -17 -20 -48 -105 -48 -132 0
-10 -3 -19 -7 -21 -8 -3 -83 -152 -83 -164 0 -3 -18 -43 -40 -89 -22 -46 -40
-88 -40 -93 0 -4 -9 -27 -20 -50 -11 -22 -20 -46 -20 -52 0 -5 -4 -10 -10 -10
-5 0 -10 -6 -10 -13 0 -7 -11 -37 -25 -65 -14 -29 -25 -57 -25 -63 0 -7 -9
-26 -20 -44 -11 -18 -26 -50 -34 -71 -7 -21 -37 -87 -65 -147 -28 -59 -51
-116 -51 -126 0 -10 -8 -29 -19 -42 -10 -13 -22 -35 -26 -49 -4 -14 -25 -63
-47 -110 -22 -47 -47 -100 -55 -117 l-15 -33 -99 0 c-59 0 -99 4 -99 10 0 7
-373 10 -1100 10 l-1100 0 0 29 c0 17 -5 33 -10 36 -6 3 -10 31 -10 61 0 30
-4 54 -10 54 -5 0 -10 23 -10 50 0 28 -4 58 -10 68 -12 22 -49 234 -43 246 3
4 350 7 772 5 l766 -4 43 24 c28 17 42 32 42 45 0 12 7 34 15 50 20 37 19 96
-2 138 -9 18 -19 40 -23 48 -3 8 -25 24 -47 36 -40 20 -56 21 -834 27 -704 6
-795 8 -805 22 -7 9 -10 24 -7 34 3 10 0 22 -6 25 -6 4 -11 25 -11 47 0 22 -4
49 -10 59 -5 10 -11 38 -13 63 -1 25 -6 49 -10 53 -34 34 -32 34 1131 34 886
1 1141 3 1153 13 9 7 28 30 43 51 23 34 26 49 25 115 -1 92 -17 124 -82 163
l-46 27 -1248 9 c-686 4 -1260 5 -1274 1 -33 -9 -77 -46 -95 -81 -8 -16 -14
-57 -14 -104 0 -79 26 -261 40 -279 5 -6 8 -31 8 -57 0 -25 5 -55 11 -66 6
-12 11 -40 11 -64 0 -24 4 -48 9 -54 5 -5 17 -54 26 -109 10 -55 21 -120 26
-145 4 -25 8 -66 8 -92 1 -26 6 -50 11 -53 6 -3 10 -19 10 -34 0 -15 3 -31 7
-35 4 -3 9 -28 11 -54 2 -26 8 -51 13 -56 5 -6 9 -34 9 -62 0 -29 5 -56 10
-59 6 -3 10 -24 10 -46 0 -22 4 -49 10 -59 5 -10 11 -38 13 -62 2 -23 7 -50
10 -58 3 -8 13 -60 22 -115 19 -111 43 -195 54 -195 5 0 21 -12 36 -27 27 -27
28 -28 203 -34 98 -4 725 -10 1395 -14 1122 -6 1221 -5 1261 10 49 19 87 66
125 155 29 67 49 110 60 130 29 53 41 80 41 95 0 9 6 29 14 43 8 15 28 59 46
97 18 39 38 82 46 97 8 14 14 33 14 42 0 9 3 16 8 16 4 0 15 21 26 48 32 79
70 167 98 224 4 10 8 25 8 33 0 8 5 15 10 15 6 0 10 8 10 18 0 9 8 31 18 47
10 17 24 46 32 65 7 19 28 67 45 105 58 125 85 192 85 209 0 9 4 16 9 16 5 0
15 17 22 38 7 20 18 46 24 57 7 11 16 31 20 45 4 14 13 32 19 40 7 8 25 49 41
90 16 41 45 112 66 157 l38 82 375 3 374 3 26 24 c43 40 56 78 56 157 0 69 -2
74 -34 106 -18 18 -40 38 -48 44 -17 13 -896 27 -945 15z"/>
<path d="M9140 2493 c0 -736 3 -1080 11 -1107 13 -48 72 -135 107 -159 74 -50
-73 -47 2383 -47 l2289 0 0 1014 c0 666 -3 1017 -10 1021 -5 3 -10 23 -10 43
0 85 -97 217 -198 268 l-57 29 -2257 3 -2258 2 0 -1067z m544 931 c14 -6 16
-70 17 -623 0 -481 3 -612 12 -597 7 11 22 30 33 42 12 12 32 37 44 56 13 18
34 44 47 58 13 14 51 59 85 100 57 70 166 199 178 210 3 3 27 31 54 63 l48 57
150 0 c85 0 148 -4 146 -9 -1 -5 -60 -69 -129 -143 -348 -368 -370 -393 -362
-414 3 -11 14 -26 23 -34 9 -8 30 -35 45 -60 16 -25 36 -51 47 -58 10 -7 18
-19 18 -26 0 -8 7 -19 15 -26 9 -7 29 -33 45 -57 16 -24 34 -49 39 -56 6 -6
23 -28 39 -47 16 -19 39 -53 52 -75 13 -22 28 -44 35 -50 17 -15 145 -185 145
-194 0 -4 14 -23 30 -41 51 -58 47 -60 -115 -60 l-144 0 -26 27 c-14 15 -25
33 -25 40 0 6 -3 13 -8 15 -10 4 -103 129 -110 148 -3 8 -13 22 -22 30 -10 8
-24 29 -33 45 -8 17 -24 39 -34 50 -10 11 -33 43 -52 70 -60 87 -141 194 -153
201 -6 4 -33 -17 -64 -52 l-53 -59 -3 -255 -3 -255 -122 -3 -123 -3 0 989 c0
544 3 992 7 995 8 9 206 9 227 1z m3716 -439 l0 -195 175 0 176 0 -3 -92 -3
-93 -173 -3 -173 -2 3 -423 c3 -400 4 -424 23 -458 11 -20 35 -47 54 -60 30
-21 44 -24 115 -22 45 2 92 4 106 5 25 3 25 3 28 -94 1 -54 -1 -98 -5 -98 -4
0 -39 -7 -78 -15 -71 -16 -198 -18 -225 -4 -8 4 -33 12 -55 18 -110 30 -191
143 -206 289 -4 42 -8 254 -8 470 l-1 392 -100 0 -100 0 0 95 0 95 100 0 100
0 0 164 0 163 48 13 c26 6 63 18 82 25 33 14 65 21 103 24 16 1 17 -14 17
-194z m-1979 -181 c94 -33 103 -38 165 -91 78 -65 143 -209 144 -313 0 -20 4
-40 9 -45 5 -6 11 -202 14 -440 3 -236 7 -439 9 -450 3 -19 -3 -20 -92 -23
-138 -4 -136 -5 -146 75 -4 38 -7 71 -6 76 4 15 -10 6 -41 -30 -42 -48 -116
-94 -197 -124 -54 -20 -84 -24 -182 -24 -80 0 -121 4 -129 13 -7 6 -21 12 -31
12 -24 0 -117 59 -153 97 -30 31 -75 123 -75 152 0 11 -5 21 -10 23 -15 5 -16
176 -2 190 7 7 12 20 12 30 0 43 52 133 108 187 62 59 172 120 252 140 146 35
249 51 331 51 l92 0 -5 74 c-4 65 -9 80 -44 132 -21 31 -48 62 -59 68 -11 6
-22 14 -25 17 -3 3 -28 13 -57 22 -57 19 -169 22 -217 8 -131 -41 -174 -56
-203 -72 -19 -11 -35 -19 -37 -19 -6 0 -44 103 -51 137 -6 29 -3 33 40 58 45
27 123 55 220 80 28 7 104 13 171 14 106 1 130 -2 195 -25z m1368 12 c8 -9 11
-51 9 -122 l-3 -109 -53 3 c-79 5 -145 -15 -210 -62 -47 -35 -64 -56 -94 -117
-20 -41 -42 -101 -47 -133 -7 -35 -11 -219 -11 -448 l0 -388 -124 0 -124 0 -5
648 c-3 356 -8 659 -12 675 l-7 27 111 0 111 0 0 -49 c0 -28 5 -53 10 -56 6
-3 10 -39 10 -78 l1 -72 17 48 c18 49 108 165 130 166 6 1 12 5 12 9 0 7 91
53 130 66 35 11 138 6 149 -8z"/>
<path d="M11200 2101 c-109 -35 -159 -62 -190 -101 -14 -18 -29 -37 -35 -44
-18 -20 -35 -81 -35 -124 0 -138 96 -232 236 -232 35 0 65 4 68 9 3 4 20 11
37 15 18 3 46 17 63 30 17 12 36 25 43 27 14 5 54 58 84 114 19 35 23 60 27
188 l5 147 -109 -1 c-90 0 -124 -5 -194 -28z"/>
<path d="M8470 3158 c-25 -6 -50 -14 -56 -19 -7 -5 -35 -12 -63 -16 l-51 -6 0
-168 0 -169 -105 0 -105 0 0 -90 0 -90 105 0 105 0 0 -435 c0 -239 4 -443 9
-453 5 -9 16 -42 25 -73 27 -93 131 -189 204 -189 12 0 22 -4 22 -10 0 -13
204 -13 228 -1 9 6 29 12 45 16 27 5 27 6 27 90 l0 85 -110 0 c-106 0 -111 1
-141 28 -17 15 -41 45 -53 67 -20 39 -21 52 -24 457 l-3 418 173 2 173 3 0 85
0 85 -170 5 -170 5 -3 193 c-1 105 -6 192 -10 191 -4 -1 -27 -6 -52 -11z"/>
<path d="M7427 2813 c-16 -2 -54 -18 -85 -34 -31 -16 -60 -29 -65 -29 -27 0
-116 -98 -142 -156 -15 -33 -31 -67 -36 -76 -11 -22 -12 -168 -1 -168 4 0 14
-17 21 -37 13 -37 57 -105 72 -111 4 -2 23 -16 41 -33 18 -16 41 -31 51 -35 9
-3 17 -9 17 -13 0 -4 17 -15 38 -23 244 -100 286 -123 321 -175 59 -91 33
-250 -45 -269 -13 -3 -24 -9 -24 -13 0 -25 -250 -45 -265 -21 -3 6 -21 10 -40
10 -19 0 -36 4 -39 9 -3 5 -23 12 -43 16 -21 3 -48 16 -60 27 l-22 21 -12 -29
c-23 -58 -48 -147 -43 -155 9 -15 65 -38 136 -54 40 -10 81 -21 90 -26 23 -12
268 -12 268 0 0 4 19 11 42 14 73 10 248 109 248 140 0 6 8 20 19 31 48 54 67
228 37 329 -15 49 -105 171 -135 181 -9 3 -38 19 -66 36 -27 16 -57 33 -65 36
-8 3 -44 17 -80 31 -60 23 -95 40 -144 67 -78 45 -115 135 -85 213 15 40 79
103 105 103 13 0 26 5 29 10 3 6 46 10 95 10 49 0 92 -4 95 -10 3 -5 19 -10
36 -10 26 0 66 -15 79 -31 3 -3 15 -8 28 -11 27 -7 38 10 52 84 6 29 15 55 20
56 29 10 2 32 -62 52 -40 13 -79 28 -87 34 -14 11 -243 18 -294 9z"/>
<path d="M4855 2800 c-3 -5 -14 -10 -24 -10 -50 0 -241 -71 -241 -90 0 -5 -6
-10 -12 -10 -31 0 -148 -113 -179 -172 -11 -21 -24 -38 -29 -38 -6 0 -10 -6
-10 -14 0 -8 -11 -37 -25 -64 -14 -28 -25 -61 -25 -75 0 -14 -4 -29 -10 -32
-6 -4 -10 -78 -10 -190 0 -112 4 -186 10 -190 6 -3 10 -19 10 -34 0 -15 11
-51 25 -79 14 -29 25 -54 25 -58 0 -9 67 -97 102 -133 72 -74 201 -141 301
-156 26 -4 50 -11 53 -16 7 -12 271 -12 278 0 3 5 27 12 53 15 27 4 77 16 112
28 l63 20 -6 52 c-4 28 -11 53 -17 54 -5 2 -9 19 -9 38 0 37 -2 39 -28 25 -56
-30 -127 -41 -271 -41 -89 0 -152 4 -156 10 -3 6 -14 10 -25 10 -10 0 -41 16
-70 35 -29 19 -55 35 -58 35 -11 0 -52 53 -52 67 0 7 -6 13 -13 13 -15 0 -67
101 -67 129 0 11 -4 21 -9 23 -28 10 -29 317 -1 326 6 2 10 14 10 26 0 26 28
84 64 131 14 18 26 38 26 44 0 6 26 27 58 47 31 20 59 41 60 45 2 5 12 9 22 9
10 0 22 5 25 10 3 6 21 10 40 10 19 0 37 5 40 10 4 6 55 10 120 10 65 0 116
-4 120 -10 3 -5 19 -10 36 -10 16 0 39 -5 52 -12 50 -26 58 -28 67 -23 6 4 10
15 10 26 0 11 9 47 20 80 23 68 18 83 -28 92 -76 15 -129 29 -144 37 -24 13
-275 13 -283 0z"/>
<path d="M5600 2322 c0 -252 3 -462 7 -466 4 -4 13 -37 19 -74 24 -140 124
-277 234 -318 25 -10 51 -22 59 -28 8 -6 67 -13 131 -15 102 -3 123 0 163 18
25 12 50 21 55 21 12 0 44 17 97 51 34 22 79 68 126 127 19 23 27 3 34 -88 l7
-90 99 0 99 0 0 660 0 660 -120 0 -120 0 0 -455 c0 -297 -3 -455 -10 -455 -5
0 -10 -11 -10 -23 0 -47 -105 -165 -175 -197 -22 -10 -58 -21 -80 -25 -22 -3
-56 -8 -76 -11 -22 -4 -39 -1 -43 5 -4 6 -20 11 -36 11 -59 0 -143 65 -173
135 -40 90 -40 91 -45 558 l-4 457 -119 0 -119 0 0 -458z"/>
<path d="M1276 1122 c50 -27 122 -98 145 -145 34 -64 38 -182 10 -240 -51
-104 -151 -154 -292 -144 -42 3 -87 10 -100 17 -18 9 -14 1 16 -30 59 -63 165
-110 249 -110 36 0 67 4 70 9 3 4 20 11 37 15 46 9 168 112 169 142 0 6 10 24
23 40 19 25 22 40 22 130 0 80 -4 106 -16 120 -9 11 -20 30 -24 44 -9 30 -45
80 -58 80 -5 0 -22 13 -38 29 -37 38 -108 61 -183 61 l-61 -1 31 -17z"/>
<path d="M2747 1134 c12 -3 32 -16 45 -29 13 -14 28 -25 34 -25 15 0 49 -39
69 -80 10 -19 21 -37 25 -40 28 -20 38 -140 17 -196 -16 -42 -82 -114 -132
-143 -47 -28 -168 -40 -229 -22 -22 6 -42 8 -44 6 -10 -10 70 -75 125 -101 81
-40 171 -45 238 -13 76 35 134 78 150 109 8 15 19 30 25 32 6 2 20 37 31 78
43 160 -8 293 -147 385 -52 35 -62 38 -142 41 -48 1 -77 1 -65 -2z"/>
<path d="M4986 877 c-51 -16 -81 -56 -80 -108 2 -51 29 -80 111 -119 69 -33
81 -49 65 -84 -13 -29 -53 -38 -121 -27 -50 8 -50 8 -57 -21 -3 -16 -3 -32 1
-36 15 -15 151 -14 188 1 65 28 95 108 63 167 -8 14 -44 39 -87 60 -80 39
-100 60 -83 88 9 14 26 17 83 17 67 0 72 2 78 23 3 13 2 27 -3 32 -16 16 -117
20 -158 7z"/>
<path d="M9117 876 c-144 -40 -195 -235 -90 -342 46 -48 90 -64 170 -64 81 0
93 6 86 43 -5 27 -7 27 -79 27 -63 0 -77 3 -92 21 -9 12 -22 27 -29 33 -19 21
-32 84 -23 114 26 90 63 116 157 111 61 -4 62 -4 67 25 4 16 5 31 3 33 -12 11
-129 11 -170 -1z"/>
<path d="M9885 883 c-62 -13 -95 -54 -95 -117 0 -47 30 -80 110 -119 48 -24
66 -38 68 -55 7 -47 -37 -66 -121 -52 -46 7 -49 6 -58 -18 -15 -39 2 -47 99
-47 71 0 92 4 114 20 34 26 48 56 48 106 0 33 -6 47 -30 69 -17 16 -43 31 -58
35 -54 11 -92 42 -92 74 0 36 19 44 98 39 l57 -3 3 31 c3 30 1 31 -44 38 -50
6 -67 6 -99 -1z"/>
<path d="M3370 674 l0 -205 38 3 37 3 5 79 c4 60 9 81 22 90 14 9 21 6 35 -14
30 -40 73 -120 73 -134 0 -18 23 -26 76 -26 l44 0 -44 68 c-24 37 -58 88 -75
114 -17 26 -31 53 -31 59 0 6 15 28 33 48 17 20 41 49 52 65 11 15 26 34 33
42 11 12 6 14 -37 14 -49 0 -52 -2 -78 -42 -16 -24 -36 -52 -46 -63 -11 -11
-23 -30 -28 -42 -18 -47 -29 -23 -29 62 l0 85 -40 0 -40 0 0 -206z"/>
<path d="M3745 857 c-4 -13 -5 -104 -3 -203 l3 -179 128 -3 127 -3 0 35 0 35
-82 3 -83 3 -3 53 -3 52 80 0 81 0 0 30 0 29 -77 3 -78 3 -3 53 -3 52 80 0 81
0 0 30 0 30 -120 0 c-117 0 -120 -1 -125 -23z"/>
<path d="M4082 678 l3 -203 125 0 125 0 3 33 3 32 -85 0 c-82 0 -86 1 -92 24
-3 13 -4 37 -2 52 3 29 3 29 81 32 l77 3 0 29 0 30 -69 0 c-80 0 -94 10 -89
67 l3 38 83 3 82 3 0 29 0 30 -125 0 -125 0 2 -202z"/>
<path d="M4420 675 l0 -205 40 0 40 0 0 74 0 73 54 6 c75 8 113 30 138 81 31
65 12 132 -49 165 -12 6 -66 11 -122 11 l-101 0 0 -205z m185 130 c28 -27 30
-42 13 -80 -10 -23 -27 -32 -68 -36 -48 -5 -50 -1 -50 64 0 35 3 67 7 70 16
17 75 6 98 -18z"/>
<path d="M5265 838 c-11 -79 -22 -353 -15 -361 4 -5 20 -7 36 -5 l29 3 6 130
c4 72 7 138 8 148 0 9 7 17 15 17 9 0 16 -17 20 -48 3 -27 20 -92 36 -145 29
-93 32 -97 59 -97 27 0 30 4 60 103 17 56 35 109 40 117 5 9 12 30 16 48 13
61 29 29 32 -64 1 -49 5 -117 8 -151 l7 -63 34 0 34 0 -5 113 c-3 61 -8 154
-11 205 l-6 92 -59 0 c-56 0 -59 -1 -65 -27 -3 -16 -14 -57 -25 -92 -10 -35
-19 -70 -19 -77 0 -22 -23 -64 -34 -64 -6 0 -17 26 -25 58 -7 31 -19 78 -28
103 -8 25 -15 52 -16 60 -5 31 -19 39 -72 39 l-54 0 -6 -42z"/>
<path d="M5782 678 l3 -203 38 -3 37 -3 0 205 0 206 -40 0 -40 0 2 -202z"/>
<path d="M5960 675 l0 -206 123 3 122 3 3 33 3 32 -85 0 -86 0 0 170 0 170
-40 0 -40 0 0 -205z"/>
<path d="M6282 678 l3 -203 38 -3 37 -3 0 205 0 206 -40 0 -40 0 2 -202z"/>
<path d="M6462 678 l3 -203 33 -3 32 -3 0 145 c0 161 9 182 46 104 31 -64 99
-191 119 -222 15 -23 24 -27 59 -24 l41 3 0 200 0 200 -39 3 -38 3 3 -131 c3
-109 2 -130 -10 -128 -8 2 -19 17 -24 33 -6 17 -13 32 -17 35 -4 3 -26 40 -48
83 -52 99 -61 107 -116 107 l-46 0 2 -202z"/>
<path d="M6967 851 c-75 -48 -112 -148 -87 -237 14 -50 68 -110 116 -130 39
-17 143 -18 197 -3 l38 10 -3 107 -3 107 -67 3 -68 3 0 -36 c0 -32 2 -35 30
-35 29 0 30 -1 30 -50 l0 -50 -61 0 c-55 0 -63 3 -90 33 -36 39 -43 63 -37
128 9 87 70 127 179 116 56 -6 57 -6 67 22 6 16 8 32 5 35 -4 3 -50 6 -103 6
-89 0 -99 -2 -143 -29z"/>
<path d="M7442 678 l3 -203 38 -3 37 -3 0 68 c0 60 3 71 27 93 25 24 26 24 37
6 6 -10 21 -34 34 -53 12 -19 31 -52 42 -74 19 -37 23 -39 65 -39 25 0 45 2
45 5 0 2 -11 21 -25 41 -14 20 -25 42 -25 49 0 7 -7 18 -15 25 -8 7 -27 36
-42 66 l-27 53 20 37 c10 20 29 44 40 53 12 9 29 31 38 49 l17 33 -47 -3 c-46
-3 -48 -5 -90 -68 -71 -107 -72 -107 -84 -90 -5 8 -10 48 -10 88 l0 72 -40 0
-40 0 2 -202z"/>
<path d="M7830 675 l0 -206 128 3 127 3 3 32 3 32 -88 3 -88 3 0 50 0 50 78 3
77 3 0 29 0 29 -77 3 -78 3 -3 53 -3 52 85 0 86 0 0 30 0 30 -125 0 -125 0 0
-205z"/>
<path d="M8170 675 l0 -205 125 0 125 0 0 35 0 34 -82 3 -83 3 -3 53 -3 52 75
0 76 0 0 30 0 30 -70 0 c-65 0 -70 2 -76 24 -3 13 -4 37 -2 52 3 29 4 29 83
34 79 5 80 5 80 33 l1 27 -123 0 -123 0 0 -205z"/>
<path d="M8510 674 l0 -205 38 3 37 3 3 73 3 72 37 0 c49 1 116 32 137 64 25
38 30 97 11 134 -25 49 -61 62 -171 62 l-95 0 0 -206z m157 145 c34 -13 43
-26 43 -61 0 -41 -32 -68 -80 -68 l-40 0 0 63 c0 35 3 67 7 70 9 10 38 8 70
-4z"/>
<path d="M9370 743 c0 -165 9 -201 57 -243 35 -31 39 -32 111 -28 73 3 74 4
112 47 45 51 50 74 50 239 l0 122 -40 0 -40 0 0 -137 c0 -120 -3 -142 -20
-170 -33 -55 -107 -57 -135 -3 -11 22 -15 63 -15 170 l0 140 -40 0 -40 0 0
-137z"/>
<path d="M10100 845 l0 -34 58 -3 57 -3 3 -168 2 -168 38 3 37 3 3 167 2 167
53 3 c51 3 52 4 55 36 l3 32 -155 0 -156 0 0 -35z"/>
<path d="M10480 674 l0 -205 38 3 37 3 3 65 c2 69 17 110 38 110 11 0 65 -84
103 -160 8 -15 101 -28 101 -14 0 6 -10 24 -91 152 -37 59 -50 106 -31 114 5
2 28 30 52 63 24 33 48 63 54 67 6 4 -13 8 -41 8 l-53 0 -50 -77 c-27 -42 -50
-81 -50 -85 0 -4 -7 -8 -15 -8 -12 0 -15 16 -15 85 l0 85 -40 0 -40 0 0 -206z"/>
<path d="M10927 758 c-19 -68 -47 -157 -61 -198 -14 -41 -26 -78 -26 -82 0 -4
18 -8 40 -8 38 0 40 2 51 43 19 65 34 77 94 77 61 0 70 -8 82 -70 8 -44 9 -45
51 -48 32 -2 42 0 42 12 0 16 -55 201 -95 319 l-27 77 -58 0 -57 0 -36 -122z
m107 36 c3 -9 6 -24 6 -35 0 -11 7 -31 16 -44 8 -13 14 -34 12 -47 -2 -19 -10
-24 -42 -26 -21 -2 -43 1 -48 6 -7 7 5 73 28 144 7 22 20 23 28 2z"/>
<path d="M11280 676 l0 -206 40 0 39 0 3 83 c3 78 4 82 27 85 39 6 70 -17 77
-57 4 -20 10 -40 14 -46 4 -5 10 -22 14 -37 6 -25 11 -28 47 -28 l41 0 -6 35
c-4 19 -20 65 -37 102 l-30 66 31 32 c42 44 42 99 -1 141 -29 28 -34 29 -145
32 l-114 4 0 -206z m187 132 c27 -25 29 -49 7 -83 -14 -21 -24 -25 -65 -25
l-49 0 0 58 c0 32 3 62 7 65 15 16 77 6 100 -15z"/>
<path d="M11622 848 c3 -32 4 -33 56 -36 l52 -3 0 -170 0 -169 45 0 45 0 0
170 0 170 55 0 55 0 0 35 0 35 -156 0 -155 0 3 -32z"/>
<path d="M11998 713 c-2 -93 -2 -185 0 -205 3 -37 4 -38 43 -38 l39 0 0 205 0
205 -40 0 -39 0 -3 -167z"/>
<path d="M12180 675 l0 -205 35 0 35 0 0 151 c0 98 4 149 10 147 6 -2 25 -35
43 -73 17 -39 37 -74 43 -80 6 -5 26 -40 44 -77 l33 -68 43 0 44 0 0 205 0
205 -35 0 -34 0 -3 -125 c-2 -73 -7 -126 -13 -128 -5 -1 -28 32 -50 74 -102
195 -89 179 -145 179 l-50 0 0 -205z"/>
<path d="M12715 868 c-104 -36 -157 -191 -102 -293 12 -21 42 -53 65 -70 41
-28 50 -30 130 -30 48 0 99 3 115 8 l27 7 0 111 0 110 -72 -3 -73 -3 0 -30 c0
-27 4 -30 33 -33 33 -3 33 -4 30 -50 l-3 -47 -52 -3 c-29 -2 -62 2 -73 8 -77
41 -80 210 -4 250 17 10 56 15 106 15 67 0 78 2 78 17 0 9 5 20 11 24 8 4 7 9
-2 15 -19 12 -177 10 -214 -3z"/>
<path d="M13052 557 c-12 -13 -22 -31 -22 -41 0 -48 72 -64 92 -20 13 28 5 48
-28 71 -18 11 -23 10 -42 -10z"/>
<path d="M13213 558 c-27 -13 -31 -59 -9 -77 26 -22 70 -9 81 23 8 24 6 31
-14 47 -26 22 -28 22 -58 7z"/>
<path d="M13372 554 c-26 -18 -28 -46 -6 -68 22 -22 50 -20 74 6 25 27 25 32
-2 58 -26 24 -37 25 -66 4z"/>
</g>
</svg>
